#!OML:ASF H:\Dans Jumps\Project 1\Capture day 1\Session 1\subject.ASF
:FULLY-SPECIFIED
:DEGREES
361
root 0.696406 17.6161 -14.6745 9.5992 -1.62376 -0.990821
lowerback 1.98465 -0.116434 -0.146348
upperback 6.21587 -0.219363 1.47108
thorax 5.32005 -0.159597 1.60012
lowerneck -12.0727 0.738127 -2.04343
upperneck 34.4185 1.16457 1.28708
head 13.6197 0.404653 1.04441
rclavicle 2.5842e-015 -1.88845e-014
rhumerus -17.6307 5.45943 -90.0344
rradius 29.021
rwrist 27.7795
rhand -15.0348 -25.5214
rfingers 7.12502
rthumb 11.1312 -55.2062
lclavicle 2.5842e-015 -1.88845e-014
lhumerus -17.875 -27.412 96.5608
lradius 25.991
lwrist 15.0793
lhand -19.2881 -1.98204
lfingers 7.12502
lthumb 7.02701 27.8813
rfemur -21.6156 -2.64925 19.2016
rtibia 25.3416
rfoot -12.0884 -4.19654
rtoes 11.9268
lfemur -20.0301 6.88063 -19.8804
ltibia 21.8823
lfoot -9.62482 5.71408
ltoes 7.35034
362
root 0.696681 17.6136 -14.6761 9.59817 -1.61224 -1.00678
lowerback 2.01724 -0.11549 -0.134269
upperback 6.22177 -0.218033 1.46969
thorax 5.30761 -0.158274 1.59198
lowerneck -12.0624 0.73842 -2.04434
upperneck 34.3592 1.16255 1.29417
head 13.5911 0.405211 1.0462
rclavicle 1.59028e-015 -2.38542e-015
rhumerus -17.5674 5.28907 -90.0049
rradius 29.0387
rwrist 27.7368
rhand -15.1504 -25.5732
rfingers 7.12502
rthumb 11.0197 -55.264
lclavicle 1.59028e-015 -2.38542e-015
lhumerus -17.7727 -27.1556 96.4573
lradius 25.9542
lwrist 14.7737
lhand -19.4367 -2.07956
lfingers 7.12502
lthumb 6.8836 27.7885
rfemur -21.6564 -2.64796 19.2194
rtibia 25.4118
rfoot -12.111 -4.2105
rtoes 11.8943
lfemur -20.0967 6.86931 -19.8638
ltibia 21.9984
lfoot -9.66447 5.72877
ltoes 7.32875
363
root 0.696904 17.611 -14.678 9.59554 -1.60055 -1.02303
lowerback 2.05141 -0.114087 -0.12071
upperback 6.23118 -0.216084 1.46715
thorax 5.29795 -0.156567 1.58184
lowerneck -12.0597 0.73875 -2.04262
upperneck 34.3044 1.15991 1.30179
head 13.5663 0.405855 1.04777
rclavicle 7.85199e-015 -7.15625e-015
rhumerus -17.5 5.12271 -89.9728
rradius 29.0621
rwrist 27.6946
rhand -15.2783 -25.6237
rfingers 7.12502
rthumb 10.8964 -55.321
lclavicle 7.85199e-015 -7.15625e-015
lhumerus -17.6558 -26.8696 96.3412
lradius 25.9102
lwrist 14.4367
lhand -19.5906 -2.16227
lfingers 7.12502
lthumb 6.73502 27.7106
rfemur -21.6998 -2.64533 19.238
rtibia 25.488
rfoot -12.1339 -4.22795
rtoes 11.8481
lfemur -20.1651 6.85422 -19.8462
ltibia 22.1196
lfoot -9.70369 5.74844
ltoes 7.30323
364
root 0.697049 17.6082 -14.6802 9.59202 -1.58878 -1.0378
lowerback 2.08693 -0.112316 -0.108536
upperback 6.24394 -0.213615 1.46369
thorax 5.29105 -0.15467 1.57156
lowerneck -12.0632 0.739604 -2.03766
upperneck 34.2542 1.15818 1.30699
head 13.5449 0.406942 1.04805
rclavicle 7.55382e-015 -1.09332e-014
rhumerus -17.4294 4.95922 -89.9368
rradius 29.0941
rwrist 27.6494
rhand -15.3987 -25.6805
rfingers 7.12502
rthumb 10.7802 -55.3839
lclavicle 7.55382e-015 -1.09332e-014
lhumerus -17.5246 -26.5573 96.2142
lradius 25.8588
lwrist 14.0799
lhand -19.7481 -2.22516
lfingers 7.12502
lthumb 6.58303 27.6525
rfemur -21.7463 -2.63777 19.2545
rtibia 25.5709
rfoot -12.1579 -4.25185
rtoes 11.8069
lfemur -20.2352 6.83622 -19.8299
ltibia 22.2432
lfoot -9.74064 5.77211
ltoes 7.26938
365
root 0.697167 17.6052 -14.6825 9.5876 -1.57764 -1.04982
lowerback 2.1231 -0.110181 -0.0986545
upperback 6.25945 -0.210595 1.45878
thorax 5.28667 -0.152593 1.56107
lowerneck -12.0744 0.739795 -2.0289
upperneck 34.2112 1.15551 1.30973
head 13.5285 0.407704 1.04673
rclavicle 1.98785e-015 -1.0138e-014
rhumerus -17.3562 4.79448 -89.8965
rradius 29.132
rwrist 27.6106
rhand -15.5163 -25.7343
rfingers 7.12502
rthumb 10.6667 -55.4435
lclavicle 1.98785e-015 -1.0138e-014
lhumerus -17.3803 -26.225 96.078
lradius 25.7978
lwrist 13.7161
lhand -19.9327 -2.3086
lfingers 7.12502
lthumb 6.40478 27.5746
rfemur -21.7958 -2.62807 19.2678
rtibia 25.6598
rfoot -12.1831 -4.2783
rtoes 11.7677
lfemur -20.3055 6.8155 -19.8163
ltibia 22.3685
lfoot -9.77715 5.79942
ltoes 7.23223
366
root 0.697229 17.6021 -14.685 9.58403 -1.56706 -1.05985
lowerback 2.16083 -0.108309 -0.0916476
upperback 6.27654 -0.207876 1.45335
thorax 5.28312 -0.150802 1.55167
lowerneck -12.0959 0.739862 -2.01761
upperneck 34.1795 1.15321 1.30965
head 13.5194 0.408454 1.04414
rclavicle 6.95746e-016 1.19271e-015
rhumerus -17.2804 4.6323 -89.8524
rradius 29.1773
rwrist 27.5679
rhand -15.6177 -25.79
rfingers 7.12502
rthumb 10.5689 -55.5043
lclavicle 6.95746e-016 1.19271e-015
lhumerus -17.2246 -25.8774 95.9337
lradius 25.728
lwrist 13.3575
lhand -20.146 -2.41995
lfingers 7.12502
lthumb 6.19885 27.4694
rfemur -21.85 -2.61359 19.2784
rtibia 25.7543
rfoot -12.2106 -4.30962
rtoes 11.7366
lfemur -20.3779 6.79403 -19.8052
ltibia 22.494
lfoot -9.81101 5.82888
ltoes 7.18357
367
root 0.697257 17.599 -14.6877 9.57983 -1.5571 -1.06754
lowerback 2.2022 -0.106701 -0.0879545
upperback 6.29409 -0.205429 1.44741
thorax 5.27799 -0.14929 1.54358
lowerneck -12.1208 0.739555 -2.00447
upperneck 34.1554 1.15092 1.30675
head 13.5145 0.408985 1.04024
rclavicle -2.88238e-015 -2.98177e-015
rhumerus -17.202 4.46975 -89.8047
rradius 29.2236
rwrist 27.526
rhand -15.7246 -25.8372
rfingers 7.12502
rthumb 10.4658 -55.5567
lclavicle -2.88238e-015 -2.98177e-015
lhumerus -17.0631 -25.5131 95.784
lradius 25.649
lwrist 13.0076
lhand -20.3664 -2.54994
lfingers 7.12502
lthumb 5.98608 27.3455
rfemur -21.906 -2.59743 19.286
rtibia 25.8528
rfoot -12.2392 -4.34111
rtoes 11.713
lfemur -20.4504 6.77316 -19.7966
ltibia 22.6197
lfoot -9.84382 5.85873
ltoes 7.12708
